<mxfile host="app.diagrams.net" agent="Mozilla/5.0 (Windows NT 10.0; Win64; x64) AppleWebKit/537.36 (KHTML, like Gecko) Chrome/129.0.0.0 Safari/537.36" version="24.7.17">
  <diagram id="C5RBs43oDa-KdzZeNtuy" name="Page-1">
    <mxGraphModel dx="2160" dy="2262" grid="1" gridSize="10" guides="1" tooltips="1" connect="1" arrows="1" fold="1" page="1" pageScale="1" pageWidth="827" pageHeight="1169" math="0" shadow="0">
      <root>
        <mxCell id="WIyWlLk6GJQsqaUBKTNV-0" />
        <mxCell id="WIyWlLk6GJQsqaUBKTNV-1" parent="WIyWlLk6GJQsqaUBKTNV-0" />
        <mxCell id="DGW5uIM85UDAti1Zn-7H-2" value="Field" style="swimlane;fontStyle=0;align=center;verticalAlign=top;childLayout=stackLayout;horizontal=1;startSize=26;horizontalStack=0;resizeParent=1;resizeLast=0;collapsible=1;marginBottom=0;rounded=0;shadow=0;strokeWidth=1;" vertex="1" parent="WIyWlLk6GJQsqaUBKTNV-1">
          <mxGeometry x="500" y="200" width="520" height="640" as="geometry">
            <mxRectangle x="120" y="360" width="160" height="26" as="alternateBounds" />
          </mxGeometry>
        </mxCell>
        <mxCell id="DGW5uIM85UDAti1Zn-7H-3" value="- rows: uint8_t" style="text;align=left;verticalAlign=top;spacingLeft=4;spacingRight=4;overflow=hidden;rotatable=0;points=[[0,0.5],[1,0.5]];portConstraint=eastwest;" vertex="1" parent="DGW5uIM85UDAti1Zn-7H-2">
          <mxGeometry y="26" width="520" height="26" as="geometry" />
        </mxCell>
        <mxCell id="DGW5uIM85UDAti1Zn-7H-4" value="- columns: uint8_t" style="text;align=left;verticalAlign=top;spacingLeft=4;spacingRight=4;overflow=hidden;rotatable=0;points=[[0,0.5],[1,0.5]];portConstraint=eastwest;rounded=0;shadow=0;html=0;" vertex="1" parent="DGW5uIM85UDAti1Zn-7H-2">
          <mxGeometry y="52" width="520" height="26" as="geometry" />
        </mxCell>
        <mxCell id="DGW5uIM85UDAti1Zn-7H-43" value="- field: vector&lt;vector&lt;FieldCell&gt;&gt;" style="text;align=left;verticalAlign=top;spacingLeft=4;spacingRight=4;overflow=hidden;rotatable=0;points=[[0,0.5],[1,0.5]];portConstraint=eastwest;rounded=0;shadow=0;html=0;" vertex="1" parent="DGW5uIM85UDAti1Zn-7H-2">
          <mxGeometry y="78" width="520" height="26" as="geometry" />
        </mxCell>
        <mxCell id="DGW5uIM85UDAti1Zn-7H-44" value="" style="line;html=1;strokeWidth=1;align=left;verticalAlign=middle;spacingTop=-1;spacingLeft=3;spacingRight=3;rotatable=0;labelPosition=right;points=[];portConstraint=eastwest;" vertex="1" parent="DGW5uIM85UDAti1Zn-7H-2">
          <mxGeometry y="104" width="520" height="8" as="geometry" />
        </mxCell>
        <mxCell id="DGW5uIM85UDAti1Zn-7H-58" value="+ CellStatus" style="text;align=left;verticalAlign=top;spacingLeft=4;spacingRight=4;overflow=hidden;rotatable=0;points=[[0,0.5],[1,0.5]];portConstraint=eastwest;rounded=0;shadow=0;html=0;perimeterSpacing=0;" vertex="1" parent="DGW5uIM85UDAti1Zn-7H-2">
          <mxGeometry y="112" width="520" height="26" as="geometry" />
        </mxCell>
        <mxCell id="DGW5uIM85UDAti1Zn-7H-59" value="+ CellValue : char" style="text;align=left;verticalAlign=top;spacingLeft=4;spacingRight=4;overflow=hidden;rotatable=0;points=[[0,0.5],[1,0.5]];portConstraint=eastwest;rounded=0;shadow=0;html=0;perimeterSpacing=0;" vertex="1" parent="DGW5uIM85UDAti1Zn-7H-2">
          <mxGeometry y="138" width="520" height="26" as="geometry" />
        </mxCell>
        <mxCell id="DGW5uIM85UDAti1Zn-7H-10" value="+ FieldCell" style="text;align=left;verticalAlign=top;spacingLeft=4;spacingRight=4;overflow=hidden;rotatable=0;points=[[0,0.5],[1,0.5]];portConstraint=eastwest;rounded=0;shadow=0;html=0;perimeterSpacing=0;" vertex="1" parent="DGW5uIM85UDAti1Zn-7H-2">
          <mxGeometry y="164" width="520" height="26" as="geometry" />
        </mxCell>
        <mxCell id="DGW5uIM85UDAti1Zn-7H-5" value="" style="line;html=1;strokeWidth=1;align=left;verticalAlign=middle;spacingTop=-1;spacingLeft=3;spacingRight=3;rotatable=0;labelPosition=right;points=[];portConstraint=eastwest;" vertex="1" parent="DGW5uIM85UDAti1Zn-7H-2">
          <mxGeometry y="190" width="520" height="8" as="geometry" />
        </mxCell>
        <mxCell id="DGW5uIM85UDAti1Zn-7H-7" value="- isPlaceAvailable(const std::shared_ptr&lt;Ship&gt; &amp;ship, Coordinate cord, bool vertical) : bool " style="text;align=left;verticalAlign=top;spacingLeft=4;spacingRight=4;overflow=hidden;rotatable=0;points=[[0,0.5],[1,0.5]];portConstraint=eastwest;" vertex="1" parent="DGW5uIM85UDAti1Zn-7H-2">
          <mxGeometry y="198" width="520" height="28" as="geometry" />
        </mxCell>
        <mxCell id="DGW5uIM85UDAti1Zn-7H-17" value="- isValidCoordinate(Coordinate coord)" style="text;align=left;verticalAlign=top;spacingLeft=4;spacingRight=4;overflow=hidden;rotatable=0;points=[[0,0.5],[1,0.5]];portConstraint=eastwest;" vertex="1" parent="DGW5uIM85UDAti1Zn-7H-2">
          <mxGeometry y="226" width="520" height="28" as="geometry" />
        </mxCell>
        <mxCell id="DGW5uIM85UDAti1Zn-7H-14" value="" style="line;html=1;strokeWidth=1;align=left;verticalAlign=middle;spacingTop=-1;spacingLeft=3;spacingRight=3;rotatable=0;labelPosition=right;points=[];portConstraint=eastwest;" vertex="1" parent="DGW5uIM85UDAti1Zn-7H-2">
          <mxGeometry y="254" width="520" height="8" as="geometry" />
        </mxCell>
        <mxCell id="DGW5uIM85UDAti1Zn-7H-39" value="+ Field(uint8_t rowsCount, uint8_t columnsCount)" style="text;align=left;verticalAlign=top;spacingLeft=4;spacingRight=4;overflow=hidden;rotatable=0;points=[[0,0.5],[1,0.5]];portConstraint=eastwest;" vertex="1" parent="DGW5uIM85UDAti1Zn-7H-2">
          <mxGeometry y="262" width="520" height="26" as="geometry" />
        </mxCell>
        <mxCell id="DGW5uIM85UDAti1Zn-7H-40" value="+ Field(const Field &amp;other);" style="text;align=left;verticalAlign=top;spacingLeft=4;spacingRight=4;overflow=hidden;rotatable=0;points=[[0,0.5],[1,0.5]];portConstraint=eastwest;" vertex="1" parent="DGW5uIM85UDAti1Zn-7H-2">
          <mxGeometry y="288" width="520" height="26" as="geometry" />
        </mxCell>
        <mxCell id="DGW5uIM85UDAti1Zn-7H-41" value="+ Field &amp;operator=(const Field &amp;other);" style="text;align=left;verticalAlign=top;spacingLeft=4;spacingRight=4;overflow=hidden;rotatable=0;points=[[0,0.5],[1,0.5]];portConstraint=eastwest;" vertex="1" parent="DGW5uIM85UDAti1Zn-7H-2">
          <mxGeometry y="314" width="520" height="26" as="geometry" />
        </mxCell>
        <mxCell id="DGW5uIM85UDAti1Zn-7H-42" value="+ Field(Field &amp;&amp;other)" style="text;align=left;verticalAlign=top;spacingLeft=4;spacingRight=4;overflow=hidden;rotatable=0;points=[[0,0.5],[1,0.5]];portConstraint=eastwest;" vertex="1" parent="DGW5uIM85UDAti1Zn-7H-2">
          <mxGeometry y="340" width="520" height="26" as="geometry" />
        </mxCell>
        <mxCell id="DGW5uIM85UDAti1Zn-7H-95" value="+ Field &amp;operator=(Field &amp;&amp;other)" style="text;align=left;verticalAlign=top;spacingLeft=4;spacingRight=4;overflow=hidden;rotatable=0;points=[[0,0.5],[1,0.5]];portConstraint=eastwest;" vertex="1" parent="DGW5uIM85UDAti1Zn-7H-2">
          <mxGeometry y="366" width="520" height="26" as="geometry" />
        </mxCell>
        <mxCell id="DGW5uIM85UDAti1Zn-7H-94" value=" " style="text;align=left;verticalAlign=top;spacingLeft=4;spacingRight=4;overflow=hidden;rotatable=0;points=[[0,0.5],[1,0.5]];portConstraint=eastwest;" vertex="1" parent="DGW5uIM85UDAti1Zn-7H-2">
          <mxGeometry y="392" width="520" height="18" as="geometry" />
        </mxCell>
        <mxCell id="DGW5uIM85UDAti1Zn-7H-96" value="+ getColumns() : uint8_t" style="text;align=left;verticalAlign=top;spacingLeft=4;spacingRight=4;overflow=hidden;rotatable=0;points=[[0,0.5],[1,0.5]];portConstraint=eastwest;" vertex="1" parent="DGW5uIM85UDAti1Zn-7H-2">
          <mxGeometry y="410" width="520" height="30" as="geometry" />
        </mxCell>
        <mxCell id="DGW5uIM85UDAti1Zn-7H-97" value="+ getRows() : uint8_t" style="text;align=left;verticalAlign=top;spacingLeft=4;spacingRight=4;overflow=hidden;rotatable=0;points=[[0,0.5],[1,0.5]];portConstraint=eastwest;" vertex="1" parent="DGW5uIM85UDAti1Zn-7H-2">
          <mxGeometry y="440" width="520" height="30" as="geometry" />
        </mxCell>
        <mxCell id="DGW5uIM85UDAti1Zn-7H-100" value="+ getValueAt(Coordinate cord)() : const CellValue&amp;" style="text;align=left;verticalAlign=top;spacingLeft=4;spacingRight=4;overflow=hidden;rotatable=0;points=[[0,0.5],[1,0.5]];portConstraint=eastwest;" vertex="1" parent="DGW5uIM85UDAti1Zn-7H-2">
          <mxGeometry y="470" width="520" height="30" as="geometry" />
        </mxCell>
        <mxCell id="DGW5uIM85UDAti1Zn-7H-98" value=" " style="text;align=left;verticalAlign=top;spacingLeft=4;spacingRight=4;overflow=hidden;rotatable=0;points=[[0,0.5],[1,0.5]];portConstraint=eastwest;" vertex="1" parent="DGW5uIM85UDAti1Zn-7H-2">
          <mxGeometry y="500" width="520" height="20" as="geometry" />
        </mxCell>
        <mxCell id="DGW5uIM85UDAti1Zn-7H-16" value="+ setValueAt(Coordinate cord, CellValue value) : void" style="text;align=left;verticalAlign=top;spacingLeft=4;spacingRight=4;overflow=hidden;rotatable=0;points=[[0,0.5],[1,0.5]];portConstraint=eastwest;" vertex="1" parent="DGW5uIM85UDAti1Zn-7H-2">
          <mxGeometry y="520" width="520" height="30" as="geometry" />
        </mxCell>
        <mxCell id="DGW5uIM85UDAti1Zn-7H-102" value="+ placeShipByCoords(const std::shared_ptr&lt;Ship&gt; &amp;ship, Coordinate coord, bool vertical) : bool" style="text;align=left;verticalAlign=top;spacingLeft=4;spacingRight=4;overflow=hidden;rotatable=0;points=[[0,0.5],[1,0.5]];portConstraint=eastwest;" vertex="1" parent="DGW5uIM85UDAti1Zn-7H-2">
          <mxGeometry y="550" width="520" height="30" as="geometry" />
        </mxCell>
        <mxCell id="DGW5uIM85UDAti1Zn-7H-103" value="+ placeShipByRandCoords(const std::shared_ptr&lt;Ship&gt; &amp;ship) : void" style="text;align=left;verticalAlign=top;spacingLeft=4;spacingRight=4;overflow=hidden;rotatable=0;points=[[0,0.5],[1,0.5]];portConstraint=eastwest;" vertex="1" parent="DGW5uIM85UDAti1Zn-7H-2">
          <mxGeometry y="580" width="520" height="30" as="geometry" />
        </mxCell>
        <mxCell id="DGW5uIM85UDAti1Zn-7H-99" value="+ attack(Coordinate coord) : AttackResult" style="text;align=left;verticalAlign=top;spacingLeft=4;spacingRight=4;overflow=hidden;rotatable=0;points=[[0,0.5],[1,0.5]];portConstraint=eastwest;" vertex="1" parent="DGW5uIM85UDAti1Zn-7H-2">
          <mxGeometry y="610" width="520" height="30" as="geometry" />
        </mxCell>
        <mxCell id="DGW5uIM85UDAti1Zn-7H-46" value="&lt;span style=&quot;background-color: transparent; color: var(--black-600); font-family: var(--ff-mono); font-size: var(--_pr-code-fs); font-style: inherit; font-variant-ligatures: inherit; font-variant-caps: inherit; font-weight: inherit; white-space: inherit; text-align: left;&quot;&gt;&amp;nbsp;&amp;lt;&amp;lt;enumeration&amp;gt;&amp;gt;&lt;br&gt;&lt;/span&gt;CellStatus" style="swimlane;fontStyle=0;childLayout=stackLayout;horizontal=1;startSize=40;fillColor=none;horizontalStack=0;resizeParent=1;resizeParentMax=0;resizeLast=0;collapsible=1;marginBottom=0;whiteSpace=wrap;html=1;" vertex="1" parent="WIyWlLk6GJQsqaUBKTNV-1">
          <mxGeometry x="110" y="140" width="140" height="92" as="geometry" />
        </mxCell>
        <mxCell id="DGW5uIM85UDAti1Zn-7H-47" value="+ Hidden" style="text;strokeColor=none;fillColor=none;align=left;verticalAlign=top;spacingLeft=4;spacingRight=4;overflow=hidden;rotatable=0;points=[[0,0.5],[1,0.5]];portConstraint=eastwest;whiteSpace=wrap;html=1;" vertex="1" parent="DGW5uIM85UDAti1Zn-7H-46">
          <mxGeometry y="40" width="140" height="26" as="geometry" />
        </mxCell>
        <mxCell id="DGW5uIM85UDAti1Zn-7H-48" value="+ Revealed" style="text;strokeColor=none;fillColor=none;align=left;verticalAlign=top;spacingLeft=4;spacingRight=4;overflow=hidden;rotatable=0;points=[[0,0.5],[1,0.5]];portConstraint=eastwest;whiteSpace=wrap;html=1;" vertex="1" parent="DGW5uIM85UDAti1Zn-7H-46">
          <mxGeometry y="66" width="140" height="26" as="geometry" />
        </mxCell>
        <mxCell id="DGW5uIM85UDAti1Zn-7H-71" value="&lt;span style=&quot;background-color: transparent; color: var(--black-600); font-family: var(--ff-mono); font-size: var(--_pr-code-fs); font-style: inherit; font-variant-ligatures: inherit; font-variant-caps: inherit; font-weight: inherit; white-space: inherit; text-align: left;&quot;&gt;&amp;nbsp;&amp;lt;&amp;lt;enumeration&amp;gt;&amp;gt;&lt;br&gt;&lt;/span&gt;&lt;span style=&quot;text-align: left;&quot;&gt;CellValue&lt;/span&gt;" style="swimlane;fontStyle=0;childLayout=stackLayout;horizontal=1;startSize=40;fillColor=none;horizontalStack=0;resizeParent=1;resizeParentMax=0;resizeLast=0;collapsible=1;marginBottom=0;whiteSpace=wrap;html=1;" vertex="1" parent="WIyWlLk6GJQsqaUBKTNV-1">
          <mxGeometry x="100" y="290" width="140" height="170" as="geometry" />
        </mxCell>
        <mxCell id="DGW5uIM85UDAti1Zn-7H-72" value="+ WaterHidden" style="text;strokeColor=none;fillColor=none;align=left;verticalAlign=top;spacingLeft=4;spacingRight=4;overflow=hidden;rotatable=0;points=[[0,0.5],[1,0.5]];portConstraint=eastwest;whiteSpace=wrap;html=1;" vertex="1" parent="DGW5uIM85UDAti1Zn-7H-71">
          <mxGeometry y="40" width="140" height="26" as="geometry" />
        </mxCell>
        <mxCell id="DGW5uIM85UDAti1Zn-7H-73" value="+ WaterRevealed" style="text;strokeColor=none;fillColor=none;align=left;verticalAlign=top;spacingLeft=4;spacingRight=4;overflow=hidden;rotatable=0;points=[[0,0.5],[1,0.5]];portConstraint=eastwest;whiteSpace=wrap;html=1;" vertex="1" parent="DGW5uIM85UDAti1Zn-7H-71">
          <mxGeometry y="66" width="140" height="26" as="geometry" />
        </mxCell>
        <mxCell id="DGW5uIM85UDAti1Zn-7H-76" value="+ ShipPart" style="text;strokeColor=none;fillColor=none;align=left;verticalAlign=top;spacingLeft=4;spacingRight=4;overflow=hidden;rotatable=0;points=[[0,0.5],[1,0.5]];portConstraint=eastwest;whiteSpace=wrap;html=1;" vertex="1" parent="DGW5uIM85UDAti1Zn-7H-71">
          <mxGeometry y="92" width="140" height="26" as="geometry" />
        </mxCell>
        <mxCell id="DGW5uIM85UDAti1Zn-7H-77" value="+ Hit" style="text;strokeColor=none;fillColor=none;align=left;verticalAlign=top;spacingLeft=4;spacingRight=4;overflow=hidden;rotatable=0;points=[[0,0.5],[1,0.5]];portConstraint=eastwest;whiteSpace=wrap;html=1;" vertex="1" parent="DGW5uIM85UDAti1Zn-7H-71">
          <mxGeometry y="118" width="140" height="26" as="geometry" />
        </mxCell>
        <mxCell id="DGW5uIM85UDAti1Zn-7H-74" value="+ Destroyed" style="text;strokeColor=none;fillColor=none;align=left;verticalAlign=top;spacingLeft=4;spacingRight=4;overflow=hidden;rotatable=0;points=[[0,0.5],[1,0.5]];portConstraint=eastwest;whiteSpace=wrap;html=1;" vertex="1" parent="DGW5uIM85UDAti1Zn-7H-71">
          <mxGeometry y="144" width="140" height="26" as="geometry" />
        </mxCell>
        <mxCell id="DGW5uIM85UDAti1Zn-7H-85" value="&lt;span style=&quot;background-color: transparent; color: var(--black-600); font-family: var(--ff-mono); font-size: var(--_pr-code-fs); font-style: inherit; font-variant-ligatures: inherit; font-variant-caps: inherit; font-weight: inherit; white-space: inherit; text-align: left;&quot;&gt;&amp;nbsp;FieldCell&lt;/span&gt;" style="swimlane;fontStyle=0;childLayout=stackLayout;horizontal=1;startSize=40;fillColor=none;horizontalStack=0;resizeParent=1;resizeParentMax=0;resizeLast=0;collapsible=1;marginBottom=0;whiteSpace=wrap;html=1;" vertex="1" parent="WIyWlLk6GJQsqaUBKTNV-1">
          <mxGeometry x="120" y="570" width="160" height="160" as="geometry" />
        </mxCell>
        <mxCell id="DGW5uIM85UDAti1Zn-7H-86" value="+ coord: Coordinate&amp;nbsp;" style="text;strokeColor=none;fillColor=none;align=left;verticalAlign=top;spacingLeft=4;spacingRight=4;overflow=hidden;rotatable=0;points=[[0,0.5],[1,0.5]];portConstraint=eastwest;whiteSpace=wrap;html=1;" vertex="1" parent="DGW5uIM85UDAti1Zn-7H-85">
          <mxGeometry y="40" width="160" height="26" as="geometry" />
        </mxCell>
        <mxCell id="DGW5uIM85UDAti1Zn-7H-87" value="+ status: CellStatus" style="text;strokeColor=none;fillColor=none;align=left;verticalAlign=top;spacingLeft=4;spacingRight=4;overflow=hidden;rotatable=0;points=[[0,0.5],[1,0.5]];portConstraint=eastwest;whiteSpace=wrap;html=1;" vertex="1" parent="DGW5uIM85UDAti1Zn-7H-85">
          <mxGeometry y="66" width="160" height="26" as="geometry" />
        </mxCell>
        <mxCell id="DGW5uIM85UDAti1Zn-7H-88" value="+ value: CellValue" style="text;strokeColor=none;fillColor=none;align=left;verticalAlign=top;spacingLeft=4;spacingRight=4;overflow=hidden;rotatable=0;points=[[0,0.5],[1,0.5]];portConstraint=eastwest;whiteSpace=wrap;html=1;" vertex="1" parent="DGW5uIM85UDAti1Zn-7H-85">
          <mxGeometry y="92" width="160" height="26" as="geometry" />
        </mxCell>
        <mxCell id="DGW5uIM85UDAti1Zn-7H-89" value="+ *segment: ShipSegment" style="text;strokeColor=none;fillColor=none;align=left;verticalAlign=top;spacingLeft=4;spacingRight=4;overflow=hidden;rotatable=0;points=[[0,0.5],[1,0.5]];portConstraint=eastwest;whiteSpace=wrap;html=1;" vertex="1" parent="DGW5uIM85UDAti1Zn-7H-85">
          <mxGeometry y="118" width="160" height="42" as="geometry" />
        </mxCell>
        <mxCell id="DGW5uIM85UDAti1Zn-7H-91" style="edgeStyle=orthogonalEdgeStyle;rounded=0;orthogonalLoop=1;jettySize=auto;html=1;entryX=1.029;entryY=0.08;entryDx=0;entryDy=0;entryPerimeter=0;startArrow=circlePlus;startFill=0;endArrow=diamondThin;endFill=1;" edge="1" parent="WIyWlLk6GJQsqaUBKTNV-1" source="DGW5uIM85UDAti1Zn-7H-10" target="DGW5uIM85UDAti1Zn-7H-86">
          <mxGeometry relative="1" as="geometry" />
        </mxCell>
        <mxCell id="DGW5uIM85UDAti1Zn-7H-92" style="edgeStyle=orthogonalEdgeStyle;rounded=0;orthogonalLoop=1;jettySize=auto;html=1;entryX=-0.005;entryY=0.08;entryDx=0;entryDy=0;entryPerimeter=0;endArrow=diamondThin;endFill=0;" edge="1" parent="WIyWlLk6GJQsqaUBKTNV-1" source="DGW5uIM85UDAti1Zn-7H-87" target="DGW5uIM85UDAti1Zn-7H-47">
          <mxGeometry relative="1" as="geometry">
            <Array as="points">
              <mxPoint x="30" y="649" />
              <mxPoint x="30" y="182" />
            </Array>
          </mxGeometry>
        </mxCell>
        <mxCell id="DGW5uIM85UDAti1Zn-7H-93" style="edgeStyle=orthogonalEdgeStyle;rounded=0;orthogonalLoop=1;jettySize=auto;html=1;entryX=0.002;entryY=0.093;entryDx=0;entryDy=0;entryPerimeter=0;endArrow=diamondThin;endFill=0;" edge="1" parent="WIyWlLk6GJQsqaUBKTNV-1" source="DGW5uIM85UDAti1Zn-7H-88" target="DGW5uIM85UDAti1Zn-7H-72">
          <mxGeometry relative="1" as="geometry" />
        </mxCell>
        <mxCell id="DGW5uIM85UDAti1Zn-7H-109" value="&lt;span style=&quot;background-color: transparent; color: var(--black-600); font-family: var(--ff-mono); font-size: var(--_pr-code-fs); font-style: inherit; font-variant-ligatures: inherit; font-variant-caps: inherit; font-weight: inherit; white-space: inherit; text-align: left;&quot;&gt;&amp;nbsp;&amp;lt;&amp;lt;enumeration&amp;gt;&amp;gt;&lt;br&gt;&lt;div style=&quot;text-align: center;&quot;&gt;&lt;span style=&quot;text-align: left; text-wrap: nowrap;&quot;&gt;AttackResult&lt;/span&gt;&lt;br&gt;&lt;/div&gt;&lt;/span&gt;" style="swimlane;fontStyle=0;childLayout=stackLayout;horizontal=1;startSize=40;fillColor=none;horizontalStack=0;resizeParent=1;resizeParentMax=0;resizeLast=0;collapsible=1;marginBottom=0;whiteSpace=wrap;html=1;" vertex="1" parent="WIyWlLk6GJQsqaUBKTNV-1">
          <mxGeometry x="320" y="680" width="140" height="144" as="geometry" />
        </mxCell>
        <mxCell id="DGW5uIM85UDAti1Zn-7H-110" value="+ Hit" style="text;strokeColor=none;fillColor=none;align=left;verticalAlign=top;spacingLeft=4;spacingRight=4;overflow=hidden;rotatable=0;points=[[0,0.5],[1,0.5]];portConstraint=eastwest;whiteSpace=wrap;html=1;" vertex="1" parent="DGW5uIM85UDAti1Zn-7H-109">
          <mxGeometry y="40" width="140" height="26" as="geometry" />
        </mxCell>
        <mxCell id="DGW5uIM85UDAti1Zn-7H-111" value="+ Miss" style="text;strokeColor=none;fillColor=none;align=left;verticalAlign=top;spacingLeft=4;spacingRight=4;overflow=hidden;rotatable=0;points=[[0,0.5],[1,0.5]];portConstraint=eastwest;whiteSpace=wrap;html=1;" vertex="1" parent="DGW5uIM85UDAti1Zn-7H-109">
          <mxGeometry y="66" width="140" height="26" as="geometry" />
        </mxCell>
        <mxCell id="DGW5uIM85UDAti1Zn-7H-112" value="+ SegmentDestroyed" style="text;strokeColor=none;fillColor=none;align=left;verticalAlign=top;spacingLeft=4;spacingRight=4;overflow=hidden;rotatable=0;points=[[0,0.5],[1,0.5]];portConstraint=eastwest;whiteSpace=wrap;html=1;" vertex="1" parent="DGW5uIM85UDAti1Zn-7H-109">
          <mxGeometry y="92" width="140" height="26" as="geometry" />
        </mxCell>
        <mxCell id="DGW5uIM85UDAti1Zn-7H-113" value="+ ShipDestroyed" style="text;strokeColor=none;fillColor=none;align=left;verticalAlign=top;spacingLeft=4;spacingRight=4;overflow=hidden;rotatable=0;points=[[0,0.5],[1,0.5]];portConstraint=eastwest;whiteSpace=wrap;html=1;" vertex="1" parent="DGW5uIM85UDAti1Zn-7H-109">
          <mxGeometry y="118" width="140" height="26" as="geometry" />
        </mxCell>
        <mxCell id="DGW5uIM85UDAti1Zn-7H-116" value="Coordinate" style="swimlane;fontStyle=1;align=center;verticalAlign=top;childLayout=stackLayout;horizontal=1;startSize=26;horizontalStack=0;resizeParent=1;resizeParentMax=0;resizeLast=0;collapsible=1;marginBottom=0;whiteSpace=wrap;html=1;" vertex="1" parent="WIyWlLk6GJQsqaUBKTNV-1">
          <mxGeometry x="105" y="970" width="570" height="164" as="geometry" />
        </mxCell>
        <mxCell id="DGW5uIM85UDAti1Zn-7H-120" value="+ x: uint8_t" style="text;strokeColor=none;fillColor=none;align=left;verticalAlign=top;spacingLeft=4;spacingRight=4;overflow=hidden;rotatable=0;points=[[0,0.5],[1,0.5]];portConstraint=eastwest;whiteSpace=wrap;html=1;" vertex="1" parent="DGW5uIM85UDAti1Zn-7H-116">
          <mxGeometry y="26" width="570" height="26" as="geometry" />
        </mxCell>
        <mxCell id="DGW5uIM85UDAti1Zn-7H-117" value="+ y: uint8_t" style="text;strokeColor=none;fillColor=none;align=left;verticalAlign=top;spacingLeft=4;spacingRight=4;overflow=hidden;rotatable=0;points=[[0,0.5],[1,0.5]];portConstraint=eastwest;whiteSpace=wrap;html=1;" vertex="1" parent="DGW5uIM85UDAti1Zn-7H-116">
          <mxGeometry y="52" width="570" height="26" as="geometry" />
        </mxCell>
        <mxCell id="DGW5uIM85UDAti1Zn-7H-118" value="" style="line;strokeWidth=1;fillColor=none;align=left;verticalAlign=middle;spacingTop=-1;spacingLeft=3;spacingRight=3;rotatable=0;labelPosition=right;points=[];portConstraint=eastwest;strokeColor=inherit;" vertex="1" parent="DGW5uIM85UDAti1Zn-7H-116">
          <mxGeometry y="78" width="570" height="8" as="geometry" />
        </mxCell>
        <mxCell id="DGW5uIM85UDAti1Zn-7H-121" value="+ operator == (const Coordinate &amp;amp; other) : bool" style="text;strokeColor=none;fillColor=none;align=left;verticalAlign=top;spacingLeft=4;spacingRight=4;overflow=hidden;rotatable=0;points=[[0,0.5],[1,0.5]];portConstraint=eastwest;whiteSpace=wrap;html=1;" vertex="1" parent="DGW5uIM85UDAti1Zn-7H-116">
          <mxGeometry y="86" width="570" height="26" as="geometry" />
        </mxCell>
        <mxCell id="DGW5uIM85UDAti1Zn-7H-122" value="+ operator != (const Coordinate &amp;amp; other) : bool" style="text;strokeColor=none;fillColor=none;align=left;verticalAlign=top;spacingLeft=4;spacingRight=4;overflow=hidden;rotatable=0;points=[[0,0.5],[1,0.5]];portConstraint=eastwest;whiteSpace=wrap;html=1;" vertex="1" parent="DGW5uIM85UDAti1Zn-7H-116">
          <mxGeometry y="112" width="570" height="26" as="geometry" />
        </mxCell>
        <mxCell id="DGW5uIM85UDAti1Zn-7H-119" value="+&amp;nbsp;&lt;span style=&quot;background-color: transparent; font-family: inherit; font-size: var(--_pr-code-fs); font-style: inherit; font-variant-ligatures: inherit; font-variant-caps: inherit; font-weight: inherit; white-space: inherit; color: rgb(12, 13, 14);&quot;&gt;&amp;lt;&amp;lt;&lt;/span&gt;&lt;span style=&quot;background-color: transparent; font-family: inherit; font-style: inherit; font-variant: inherit; font-weight: inherit; white-space: inherit; color: var(--highlight-keyword); margin: 0px; padding: 0px; border: 0px; font-stretch: inherit; line-height: inherit; font-optical-sizing: inherit; font-size-adjust: inherit; font-kerning: inherit; font-feature-settings: inherit; font-variation-settings: inherit; font-size: 13px; vertical-align: baseline; box-sizing: inherit; --theme-base-primary-color-h: 27; --theme-base-primary-color-s: 89%; --theme-base-primary-color-l: 48%; --theme-primary-custom-100: hsl(var(--theme-base-primary-color-h), var(--theme-base-primary-color-s), calc(var(--theme-base-primary-color-l) + ((100% - var(--theme-base-primary-color-l)) * .9))); --theme-primary-custom-200: hsl(var(--theme-base-primary-color-h), var(--theme-base-primary-color-s), calc(var(--theme-base-primary-color-l) + ((100% - var(--theme-base-primary-color-l)) * .75))); --theme-primary-custom-300: hsl(var(--theme-base-primary-color-h), var(--theme-base-primary-color-s), calc(var(--theme-base-primary-color-l) + ((100% - var(--theme-base-primary-color-l)) * .5))); --theme-primary-custom-400: hsl(var(--theme-base-primary-color-h), var(--theme-base-primary-color-s), var(--theme-base-primary-color-l)); --theme-primary-custom-500: hsl(var(--theme-base-primary-color-h), var(--theme-base-primary-color-s), calc(var(--theme-base-primary-color-l) + (var(--theme-base-primary-color-l) * -.3))); --theme-primary-custom-600: hsl(var(--theme-base-primary-color-h), var(--theme-base-primary-color-s), calc(var(--theme-base-primary-color-l) + (var(--theme-base-primary-color-l) * -.6))); --theme-primary-custom: var(--theme-primary-custom-400); --theme-button-color: initial; --theme-button-hover-color: initial; --theme-button-hover-background-color: initial; --theme-button-active-background-color: initial; --theme-button-selected-color: initial; --theme-button-selected-background-color: initial; --theme-button-outlined-border-color: initial; --theme-button-outlined-selected-border-color: initial; --theme-button-primary-color: initial; --theme-button-primary-active-color: initial; --theme-button-primary-hover-color: initial; --theme-button-primary-selected-color: initial; --theme-button-primary-background-color: initial; --theme-button-primary-active-background-color: initial; --theme-button-primary-hover-background-color: initial; --theme-button-primary-selected-background-color: initial; --theme-background-color: var(--white); --theme-background-position: top left; --theme-background-repeat: repeat; --theme-background-size: auto; --theme-background-attachment: auto; --theme-content-background-color: var(--white); --theme-content-border-color: var(--black-225); --theme-header-background-color: var(--theme-primary); --theme-header-background-position: center left; --theme-header-background-repeat: repeat; --theme-header-background-size: auto; --theme-header-background-border-bottom: 0; --theme-header-link-color: var(--theme-primary); --theme-header-sponsored-color: hsla(0,0%,100%,0.4); --theme-header-foreground-color: transparent; --theme-header-foreground-position: bottom right; --theme-header-foreground-repeat: no-repeat; --theme-header-foreground-size: auto; --theme-footer-background-color: hsl(210,8%,5%); --theme-footer-background-position: top left; --theme-footer-background-repeat: no-repeat; --theme-footer-background-size: auto; --theme-footer-background-border-top: 0; --theme-footer-title-color: var(--black-250); --theme-footer-text-color: var(--black-300); --theme-footer-link-color: var(--black-300); --theme-footer-link-color-hover: var(--black-200); --theme-footer-divider-color: var(--black-500); --theme-footer-padding-top: 0; --theme-footer-padding-bottom: 0; --theme-link-color: initial; --theme-link-color-hover: initial; --theme-link-color-visited: initial; --theme-body-font-family: var(--ff-sans); --theme-body-font-color: var(--black-600); --theme-post-title-font-family: var(--ff-sans); --theme-post-title-color: var(--theme-link-color); --theme-post-title-color-hover: var(--theme-link-color-hover); --theme-post-title-color-visited: var(--theme-link-color-visited); --theme-post-body-font-family: var(--ff-sans); --theme-post-owner-background-color: var(--theme-secondary-100); --theme-post-owner-new-background-color: var(--theme-secondary-200); --theme-topbar-bottom-border: 1px solid var(--black-225);&quot; class=&quot;hljs-keyword&quot;&gt;friend&lt;/span&gt;&lt;span style=&quot;background-color: transparent; font-family: inherit; font-size: var(--_pr-code-fs); font-style: inherit; font-variant-ligatures: inherit; font-variant-caps: inherit; font-weight: inherit; white-space: inherit; color: rgb(12, 13, 14);&quot;&gt;&amp;gt;&amp;gt; ostream&amp;amp; &lt;/span&gt;&lt;span style=&quot;background-color: transparent; font-family: inherit; font-style: inherit; font-variant: inherit; font-weight: inherit; white-space: inherit; color: var(--highlight-keyword); margin: 0px; padding: 0px; border: 0px; font-stretch: inherit; line-height: inherit; font-optical-sizing: inherit; font-size-adjust: inherit; font-kerning: inherit; font-feature-settings: inherit; font-variation-settings: inherit; font-size: 13px; vertical-align: baseline; box-sizing: inherit; --theme-base-primary-color-h: 27; --theme-base-primary-color-s: 89%; --theme-base-primary-color-l: 48%; --theme-primary-custom-100: hsl(var(--theme-base-primary-color-h), var(--theme-base-primary-color-s), calc(var(--theme-base-primary-color-l) + ((100% - var(--theme-base-primary-color-l)) * .9))); --theme-primary-custom-200: hsl(var(--theme-base-primary-color-h), var(--theme-base-primary-color-s), calc(var(--theme-base-primary-color-l) + ((100% - var(--theme-base-primary-color-l)) * .75))); --theme-primary-custom-300: hsl(var(--theme-base-primary-color-h), var(--theme-base-primary-color-s), calc(var(--theme-base-primary-color-l) + ((100% - var(--theme-base-primary-color-l)) * .5))); --theme-primary-custom-400: hsl(var(--theme-base-primary-color-h), var(--theme-base-primary-color-s), var(--theme-base-primary-color-l)); --theme-primary-custom-500: hsl(var(--theme-base-primary-color-h), var(--theme-base-primary-color-s), calc(var(--theme-base-primary-color-l) + (var(--theme-base-primary-color-l) * -.3))); --theme-primary-custom-600: hsl(var(--theme-base-primary-color-h), var(--theme-base-primary-color-s), calc(var(--theme-base-primary-color-l) + (var(--theme-base-primary-color-l) * -.6))); --theme-primary-custom: var(--theme-primary-custom-400); --theme-button-color: initial; --theme-button-hover-color: initial; --theme-button-hover-background-color: initial; --theme-button-active-background-color: initial; --theme-button-selected-color: initial; --theme-button-selected-background-color: initial; --theme-button-outlined-border-color: initial; --theme-button-outlined-selected-border-color: initial; --theme-button-primary-color: initial; --theme-button-primary-active-color: initial; --theme-button-primary-hover-color: initial; --theme-button-primary-selected-color: initial; --theme-button-primary-background-color: initial; --theme-button-primary-active-background-color: initial; --theme-button-primary-hover-background-color: initial; --theme-button-primary-selected-background-color: initial; --theme-background-color: var(--white); --theme-background-position: top left; --theme-background-repeat: repeat; --theme-background-size: auto; --theme-background-attachment: auto; --theme-content-background-color: var(--white); --theme-content-border-color: var(--black-225); --theme-header-background-color: var(--theme-primary); --theme-header-background-position: center left; --theme-header-background-repeat: repeat; --theme-header-background-size: auto; --theme-header-background-border-bottom: 0; --theme-header-link-color: var(--theme-primary); --theme-header-sponsored-color: hsla(0,0%,100%,0.4); --theme-header-foreground-color: transparent; --theme-header-foreground-position: bottom right; --theme-header-foreground-repeat: no-repeat; --theme-header-foreground-size: auto; --theme-footer-background-color: hsl(210,8%,5%); --theme-footer-background-position: top left; --theme-footer-background-repeat: no-repeat; --theme-footer-background-size: auto; --theme-footer-background-border-top: 0; --theme-footer-title-color: var(--black-250); --theme-footer-text-color: var(--black-300); --theme-footer-link-color: var(--black-300); --theme-footer-link-color-hover: var(--black-200); --theme-footer-divider-color: var(--black-500); --theme-footer-padding-top: 0; --theme-footer-padding-bottom: 0; --theme-link-color: initial; --theme-link-color-hover: initial; --theme-link-color-visited: initial; --theme-body-font-family: var(--ff-sans); --theme-body-font-color: var(--black-600); --theme-post-title-font-family: var(--ff-sans); --theme-post-title-color: var(--theme-link-color); --theme-post-title-color-hover: var(--theme-link-color-hover); --theme-post-title-color-visited: var(--theme-link-color-visited); --theme-post-body-font-family: var(--ff-sans); --theme-post-owner-background-color: var(--theme-secondary-100); --theme-post-owner-new-background-color: var(--theme-secondary-200); --theme-topbar-bottom-border: 1px solid var(--black-225);&quot; class=&quot;hljs-keyword&quot;&gt;operator&amp;nbsp;&lt;/span&gt;&lt;span style=&quot;background-color: transparent; font-family: inherit; font-size: var(--_pr-code-fs); font-style: inherit; font-variant-ligatures: inherit; font-variant-caps: inherit; font-weight: inherit; white-space: inherit; color: rgb(12, 13, 14);&quot;&gt;&amp;lt;&amp;lt;&lt;/span&gt;&lt;span style=&quot;font-style: inherit; font-variant-ligatures: inherit; font-variant-caps: inherit; font-weight: inherit; font-size: 14px; white-space: pre;&quot;&gt;&lt;font style=&quot;&quot; face=&quot;Consolas, Courier New, monospace&quot; color=&quot;#cccccc&quot;&gt;&amp;nbsp;&lt;/font&gt;&lt;font style=&quot;&quot; face=&quot;Consolas, Courier New, monospace&quot;&gt;(std::ostream &amp;amp; os, const Coordinate &amp;amp; coord)&lt;/font&gt;&lt;/span&gt;" style="text;strokeColor=none;fillColor=none;align=left;verticalAlign=top;spacingLeft=4;spacingRight=4;overflow=hidden;rotatable=0;points=[[0,0.5],[1,0.5]];portConstraint=eastwest;whiteSpace=wrap;html=1;" vertex="1" parent="DGW5uIM85UDAti1Zn-7H-116">
          <mxGeometry y="138" width="570" height="26" as="geometry" />
        </mxCell>
        <mxCell id="DGW5uIM85UDAti1Zn-7H-123" style="edgeStyle=orthogonalEdgeStyle;rounded=0;orthogonalLoop=1;jettySize=auto;html=1;entryX=0;entryY=-0.09;entryDx=0;entryDy=0;entryPerimeter=0;endArrow=diamondThin;endFill=0;" edge="1" parent="WIyWlLk6GJQsqaUBKTNV-1" source="DGW5uIM85UDAti1Zn-7H-86" target="DGW5uIM85UDAti1Zn-7H-120">
          <mxGeometry relative="1" as="geometry">
            <Array as="points">
              <mxPoint x="50" y="623" />
            </Array>
          </mxGeometry>
        </mxCell>
        <mxCell id="DGW5uIM85UDAti1Zn-7H-124" value="Ship" style="swimlane;fontStyle=1;align=center;verticalAlign=top;childLayout=stackLayout;horizontal=1;startSize=26;horizontalStack=0;resizeParent=1;resizeParentMax=0;resizeLast=0;collapsible=1;marginBottom=0;whiteSpace=wrap;html=1;" vertex="1" parent="WIyWlLk6GJQsqaUBKTNV-1">
          <mxGeometry x="1400" y="759" width="280" height="320" as="geometry" />
        </mxCell>
        <mxCell id="DGW5uIM85UDAti1Zn-7H-128" value="- size: uint8_t" style="text;strokeColor=none;fillColor=none;align=left;verticalAlign=top;spacingLeft=4;spacingRight=4;overflow=hidden;rotatable=0;points=[[0,0.5],[1,0.5]];portConstraint=eastwest;whiteSpace=wrap;html=1;" vertex="1" parent="DGW5uIM85UDAti1Zn-7H-124">
          <mxGeometry y="26" width="280" height="26" as="geometry" />
        </mxCell>
        <mxCell id="DGW5uIM85UDAti1Zn-7H-129" value="- segments: vector &amp;lt;shared_ptr&amp;lt;ShipSegment&amp;gt;&amp;gt;" style="text;strokeColor=none;fillColor=none;align=left;verticalAlign=top;spacingLeft=4;spacingRight=4;overflow=hidden;rotatable=0;points=[[0,0.5],[1,0.5]];portConstraint=eastwest;whiteSpace=wrap;html=1;" vertex="1" parent="DGW5uIM85UDAti1Zn-7H-124">
          <mxGeometry y="52" width="280" height="26" as="geometry" />
        </mxCell>
        <mxCell id="DGW5uIM85UDAti1Zn-7H-125" value="- vertical: bool" style="text;strokeColor=none;fillColor=none;align=left;verticalAlign=top;spacingLeft=4;spacingRight=4;overflow=hidden;rotatable=0;points=[[0,0.5],[1,0.5]];portConstraint=eastwest;whiteSpace=wrap;html=1;" vertex="1" parent="DGW5uIM85UDAti1Zn-7H-124">
          <mxGeometry y="78" width="280" height="26" as="geometry" />
        </mxCell>
        <mxCell id="DGW5uIM85UDAti1Zn-7H-126" value="" style="line;strokeWidth=1;fillColor=none;align=left;verticalAlign=middle;spacingTop=-1;spacingLeft=3;spacingRight=3;rotatable=0;labelPosition=right;points=[];portConstraint=eastwest;strokeColor=inherit;" vertex="1" parent="DGW5uIM85UDAti1Zn-7H-124">
          <mxGeometry y="104" width="280" height="8" as="geometry" />
        </mxCell>
        <mxCell id="DGW5uIM85UDAti1Zn-7H-131" value="+ Ship(uint8_t shipSize)" style="text;strokeColor=none;fillColor=none;align=left;verticalAlign=top;spacingLeft=4;spacingRight=4;overflow=hidden;rotatable=0;points=[[0,0.5],[1,0.5]];portConstraint=eastwest;whiteSpace=wrap;html=1;" vertex="1" parent="DGW5uIM85UDAti1Zn-7H-124">
          <mxGeometry y="112" width="280" height="26" as="geometry" />
        </mxCell>
        <mxCell id="DGW5uIM85UDAti1Zn-7H-132" value="+&amp;nbsp;initializeSegments() : void" style="text;strokeColor=none;fillColor=none;align=left;verticalAlign=top;spacingLeft=4;spacingRight=4;overflow=hidden;rotatable=0;points=[[0,0.5],[1,0.5]];portConstraint=eastwest;whiteSpace=wrap;html=1;" vertex="1" parent="DGW5uIM85UDAti1Zn-7H-124">
          <mxGeometry y="138" width="280" height="26" as="geometry" />
        </mxCell>
        <mxCell id="DGW5uIM85UDAti1Zn-7H-133" value="+ getSize(): uint8_t" style="text;strokeColor=none;fillColor=none;align=left;verticalAlign=top;spacingLeft=4;spacingRight=4;overflow=hidden;rotatable=0;points=[[0,0.5],[1,0.5]];portConstraint=eastwest;whiteSpace=wrap;html=1;" vertex="1" parent="DGW5uIM85UDAti1Zn-7H-124">
          <mxGeometry y="164" width="280" height="26" as="geometry" />
        </mxCell>
        <mxCell id="DGW5uIM85UDAti1Zn-7H-134" value="+&amp;nbsp;getSegment(uint8_t index) : ShipSegment&amp;amp;" style="text;strokeColor=none;fillColor=none;align=left;verticalAlign=top;spacingLeft=4;spacingRight=4;overflow=hidden;rotatable=0;points=[[0,0.5],[1,0.5]];portConstraint=eastwest;whiteSpace=wrap;html=1;" vertex="1" parent="DGW5uIM85UDAti1Zn-7H-124">
          <mxGeometry y="190" width="280" height="26" as="geometry" />
        </mxCell>
        <mxCell id="DGW5uIM85UDAti1Zn-7H-135" value="+ isVertical() : bool" style="text;strokeColor=none;fillColor=none;align=left;verticalAlign=top;spacingLeft=4;spacingRight=4;overflow=hidden;rotatable=0;points=[[0,0.5],[1,0.5]];portConstraint=eastwest;whiteSpace=wrap;html=1;" vertex="1" parent="DGW5uIM85UDAti1Zn-7H-124">
          <mxGeometry y="216" width="280" height="26" as="geometry" />
        </mxCell>
        <mxCell id="DGW5uIM85UDAti1Zn-7H-136" value="+&amp;nbsp;setOrientation(bool isVertical)&amp;nbsp; : void" style="text;strokeColor=none;fillColor=none;align=left;verticalAlign=top;spacingLeft=4;spacingRight=4;overflow=hidden;rotatable=0;points=[[0,0.5],[1,0.5]];portConstraint=eastwest;whiteSpace=wrap;html=1;" vertex="1" parent="DGW5uIM85UDAti1Zn-7H-124">
          <mxGeometry y="242" width="280" height="26" as="geometry" />
        </mxCell>
        <mxCell id="DGW5uIM85UDAti1Zn-7H-137" value="+&amp;nbsp;occupiesCoordinate(Coordinate coord) : bool" style="text;strokeColor=none;fillColor=none;align=left;verticalAlign=top;spacingLeft=4;spacingRight=4;overflow=hidden;rotatable=0;points=[[0,0.5],[1,0.5]];portConstraint=eastwest;whiteSpace=wrap;html=1;" vertex="1" parent="DGW5uIM85UDAti1Zn-7H-124">
          <mxGeometry y="268" width="280" height="26" as="geometry" />
        </mxCell>
        <mxCell id="DGW5uIM85UDAti1Zn-7H-127" value="+&amp;nbsp;isShipDestroyed() : bool" style="text;strokeColor=none;fillColor=none;align=left;verticalAlign=top;spacingLeft=4;spacingRight=4;overflow=hidden;rotatable=0;points=[[0,0.5],[1,0.5]];portConstraint=eastwest;whiteSpace=wrap;html=1;" vertex="1" parent="DGW5uIM85UDAti1Zn-7H-124">
          <mxGeometry y="294" width="280" height="26" as="geometry" />
        </mxCell>
        <mxCell id="DGW5uIM85UDAti1Zn-7H-138" value="ShipSegment" style="swimlane;fontStyle=1;align=center;verticalAlign=top;childLayout=stackLayout;horizontal=1;startSize=26;horizontalStack=0;resizeParent=1;resizeParentMax=0;resizeLast=0;collapsible=1;marginBottom=0;whiteSpace=wrap;html=1;" vertex="1" parent="WIyWlLk6GJQsqaUBKTNV-1">
          <mxGeometry x="930" y="1134" width="420" height="346" as="geometry" />
        </mxCell>
        <mxCell id="DGW5uIM85UDAti1Zn-7H-149" value="- ship : weak_ptr&amp;lt;Ship&amp;gt;" style="text;strokeColor=none;fillColor=none;align=left;verticalAlign=top;spacingLeft=4;spacingRight=4;overflow=hidden;rotatable=0;points=[[0,0.5],[1,0.5]];portConstraint=eastwest;whiteSpace=wrap;html=1;" vertex="1" parent="DGW5uIM85UDAti1Zn-7H-138">
          <mxGeometry y="26" width="420" height="26" as="geometry" />
        </mxCell>
        <mxCell id="DGW5uIM85UDAti1Zn-7H-150" value="- coord : Coordinate" style="text;strokeColor=none;fillColor=none;align=left;verticalAlign=top;spacingLeft=4;spacingRight=4;overflow=hidden;rotatable=0;points=[[0,0.5],[1,0.5]];portConstraint=eastwest;whiteSpace=wrap;html=1;" vertex="1" parent="DGW5uIM85UDAti1Zn-7H-138">
          <mxGeometry y="52" width="420" height="26" as="geometry" />
        </mxCell>
        <mxCell id="DGW5uIM85UDAti1Zn-7H-139" value="-status : SegmentStatus::Intact;" style="text;strokeColor=none;fillColor=none;align=left;verticalAlign=top;spacingLeft=4;spacingRight=4;overflow=hidden;rotatable=0;points=[[0,0.5],[1,0.5]];portConstraint=eastwest;whiteSpace=wrap;html=1;" vertex="1" parent="DGW5uIM85UDAti1Zn-7H-138">
          <mxGeometry y="78" width="420" height="26" as="geometry" />
        </mxCell>
        <mxCell id="DGW5uIM85UDAti1Zn-7H-142" value="+ SegmentStatus" style="text;strokeColor=none;fillColor=none;align=left;verticalAlign=top;spacingLeft=4;spacingRight=4;overflow=hidden;rotatable=0;points=[[0,0.5],[1,0.5]];portConstraint=eastwest;whiteSpace=wrap;html=1;" vertex="1" parent="DGW5uIM85UDAti1Zn-7H-138">
          <mxGeometry y="104" width="420" height="26" as="geometry" />
        </mxCell>
        <mxCell id="DGW5uIM85UDAti1Zn-7H-140" value="" style="line;strokeWidth=1;fillColor=none;align=left;verticalAlign=middle;spacingTop=-1;spacingLeft=3;spacingRight=3;rotatable=0;labelPosition=right;points=[];portConstraint=eastwest;strokeColor=inherit;" vertex="1" parent="DGW5uIM85UDAti1Zn-7H-138">
          <mxGeometry y="130" width="420" height="8" as="geometry" />
        </mxCell>
        <mxCell id="DGW5uIM85UDAti1Zn-7H-229" value="+&amp;nbsp;ShipSegment(std::shared_ptr&amp;lt;Ship&amp;gt; parentShip, Coordinate pos = {0, 0})" style="text;strokeColor=none;fillColor=none;align=left;verticalAlign=top;spacingLeft=4;spacingRight=4;overflow=hidden;rotatable=0;points=[[0,0.5],[1,0.5]];portConstraint=eastwest;whiteSpace=wrap;html=1;" vertex="1" parent="DGW5uIM85UDAti1Zn-7H-138">
          <mxGeometry y="138" width="420" height="26" as="geometry" />
        </mxCell>
        <mxCell id="DGW5uIM85UDAti1Zn-7H-230" value="+&amp;nbsp;getStatus()&amp;nbsp; : SegmentStatus" style="text;strokeColor=none;fillColor=none;align=left;verticalAlign=top;spacingLeft=4;spacingRight=4;overflow=hidden;rotatable=0;points=[[0,0.5],[1,0.5]];portConstraint=eastwest;whiteSpace=wrap;html=1;" vertex="1" parent="DGW5uIM85UDAti1Zn-7H-138">
          <mxGeometry y="164" width="420" height="26" as="geometry" />
        </mxCell>
        <mxCell id="DGW5uIM85UDAti1Zn-7H-231" value="+&amp;nbsp;getCoord() : Coordinate" style="text;strokeColor=none;fillColor=none;align=left;verticalAlign=top;spacingLeft=4;spacingRight=4;overflow=hidden;rotatable=0;points=[[0,0.5],[1,0.5]];portConstraint=eastwest;whiteSpace=wrap;html=1;" vertex="1" parent="DGW5uIM85UDAti1Zn-7H-138">
          <mxGeometry y="190" width="420" height="26" as="geometry" />
        </mxCell>
        <mxCell id="DGW5uIM85UDAti1Zn-7H-232" value="+&amp;nbsp;setCoord(Coordinate pos) : void" style="text;strokeColor=none;fillColor=none;align=left;verticalAlign=top;spacingLeft=4;spacingRight=4;overflow=hidden;rotatable=0;points=[[0,0.5],[1,0.5]];portConstraint=eastwest;whiteSpace=wrap;html=1;" vertex="1" parent="DGW5uIM85UDAti1Zn-7H-138">
          <mxGeometry y="216" width="420" height="26" as="geometry" />
        </mxCell>
        <mxCell id="DGW5uIM85UDAti1Zn-7H-233" value="+&amp;nbsp;setStatus(SegmentStatus newStatus) : void" style="text;strokeColor=none;fillColor=none;align=left;verticalAlign=top;spacingLeft=4;spacingRight=4;overflow=hidden;rotatable=0;points=[[0,0.5],[1,0.5]];portConstraint=eastwest;whiteSpace=wrap;html=1;" vertex="1" parent="DGW5uIM85UDAti1Zn-7H-138">
          <mxGeometry y="242" width="420" height="26" as="geometry" />
        </mxCell>
        <mxCell id="DGW5uIM85UDAti1Zn-7H-234" value="+&amp;nbsp;isDestroyed() : bool" style="text;strokeColor=none;fillColor=none;align=left;verticalAlign=top;spacingLeft=4;spacingRight=4;overflow=hidden;rotatable=0;points=[[0,0.5],[1,0.5]];portConstraint=eastwest;whiteSpace=wrap;html=1;" vertex="1" parent="DGW5uIM85UDAti1Zn-7H-138">
          <mxGeometry y="268" width="420" height="26" as="geometry" />
        </mxCell>
        <mxCell id="DGW5uIM85UDAti1Zn-7H-235" value="+&amp;nbsp;isShipDestroyed() : bool" style="text;strokeColor=none;fillColor=none;align=left;verticalAlign=top;spacingLeft=4;spacingRight=4;overflow=hidden;rotatable=0;points=[[0,0.5],[1,0.5]];portConstraint=eastwest;whiteSpace=wrap;html=1;" vertex="1" parent="DGW5uIM85UDAti1Zn-7H-138">
          <mxGeometry y="294" width="420" height="26" as="geometry" />
        </mxCell>
        <mxCell id="DGW5uIM85UDAti1Zn-7H-141" value="+&amp;nbsp;hit() : void" style="text;strokeColor=none;fillColor=none;align=left;verticalAlign=top;spacingLeft=4;spacingRight=4;overflow=hidden;rotatable=0;points=[[0,0.5],[1,0.5]];portConstraint=eastwest;whiteSpace=wrap;html=1;" vertex="1" parent="DGW5uIM85UDAti1Zn-7H-138">
          <mxGeometry y="320" width="420" height="26" as="geometry" />
        </mxCell>
        <mxCell id="DGW5uIM85UDAti1Zn-7H-143" value="&lt;span style=&quot;background-color: transparent; color: var(--black-600); font-family: var(--ff-mono); font-size: var(--_pr-code-fs); font-style: inherit; font-variant-ligatures: inherit; font-variant-caps: inherit; font-weight: inherit; white-space: inherit; text-align: left;&quot;&gt;&amp;nbsp;&amp;lt;&amp;lt;enumeration&amp;gt;&amp;gt;&lt;br&gt;&lt;div style=&quot;text-align: center;&quot;&gt;&lt;span style=&quot;text-align: left; text-wrap: nowrap;&quot;&gt;SegmentStatus&lt;/span&gt;&lt;br&gt;&lt;/div&gt;&lt;/span&gt;" style="swimlane;fontStyle=0;childLayout=stackLayout;horizontal=1;startSize=40;fillColor=none;horizontalStack=0;resizeParent=1;resizeParentMax=0;resizeLast=0;collapsible=1;marginBottom=0;whiteSpace=wrap;html=1;" vertex="1" parent="WIyWlLk6GJQsqaUBKTNV-1">
          <mxGeometry x="1190" y="585" width="140" height="118" as="geometry" />
        </mxCell>
        <mxCell id="DGW5uIM85UDAti1Zn-7H-144" value="+ Intact" style="text;strokeColor=none;fillColor=none;align=left;verticalAlign=top;spacingLeft=4;spacingRight=4;overflow=hidden;rotatable=0;points=[[0,0.5],[1,0.5]];portConstraint=eastwest;whiteSpace=wrap;html=1;" vertex="1" parent="DGW5uIM85UDAti1Zn-7H-143">
          <mxGeometry y="40" width="140" height="26" as="geometry" />
        </mxCell>
        <mxCell id="DGW5uIM85UDAti1Zn-7H-145" value="+ Damaged" style="text;strokeColor=none;fillColor=none;align=left;verticalAlign=top;spacingLeft=4;spacingRight=4;overflow=hidden;rotatable=0;points=[[0,0.5],[1,0.5]];portConstraint=eastwest;whiteSpace=wrap;html=1;" vertex="1" parent="DGW5uIM85UDAti1Zn-7H-143">
          <mxGeometry y="66" width="140" height="26" as="geometry" />
        </mxCell>
        <mxCell id="DGW5uIM85UDAti1Zn-7H-146" value="+ Destroyed" style="text;strokeColor=none;fillColor=none;align=left;verticalAlign=top;spacingLeft=4;spacingRight=4;overflow=hidden;rotatable=0;points=[[0,0.5],[1,0.5]];portConstraint=eastwest;whiteSpace=wrap;html=1;" vertex="1" parent="DGW5uIM85UDAti1Zn-7H-143">
          <mxGeometry y="92" width="140" height="26" as="geometry" />
        </mxCell>
        <mxCell id="DGW5uIM85UDAti1Zn-7H-148" style="edgeStyle=orthogonalEdgeStyle;rounded=0;orthogonalLoop=1;jettySize=auto;html=1;entryX=0;entryY=0.208;entryDx=0;entryDy=0;startArrow=circlePlus;startFill=0;entryPerimeter=0;" edge="1" parent="WIyWlLk6GJQsqaUBKTNV-1" source="DGW5uIM85UDAti1Zn-7H-142" target="DGW5uIM85UDAti1Zn-7H-143">
          <mxGeometry relative="1" as="geometry" />
        </mxCell>
        <mxCell id="DGW5uIM85UDAti1Zn-7H-152" style="edgeStyle=orthogonalEdgeStyle;rounded=0;orthogonalLoop=1;jettySize=auto;html=1;entryX=0.993;entryY=0.077;entryDx=0;entryDy=0;entryPerimeter=0;endArrow=diamondThin;endFill=1;" edge="1" parent="WIyWlLk6GJQsqaUBKTNV-1" source="DGW5uIM85UDAti1Zn-7H-150" target="DGW5uIM85UDAti1Zn-7H-120">
          <mxGeometry relative="1" as="geometry" />
        </mxCell>
        <mxCell id="DGW5uIM85UDAti1Zn-7H-154" style="edgeStyle=orthogonalEdgeStyle;rounded=0;orthogonalLoop=1;jettySize=auto;html=1;entryX=0.5;entryY=0;entryDx=0;entryDy=0;endArrow=diamondThin;endFill=1;" edge="1" parent="WIyWlLk6GJQsqaUBKTNV-1" source="DGW5uIM85UDAti1Zn-7H-129" target="DGW5uIM85UDAti1Zn-7H-138">
          <mxGeometry relative="1" as="geometry" />
        </mxCell>
        <mxCell id="DGW5uIM85UDAti1Zn-7H-159" style="edgeStyle=orthogonalEdgeStyle;rounded=0;orthogonalLoop=1;jettySize=auto;html=1;entryX=0.25;entryY=0;entryDx=0;entryDy=0;endArrow=diamondThin;endFill=0;" edge="1" parent="WIyWlLk6GJQsqaUBKTNV-1" source="DGW5uIM85UDAti1Zn-7H-89" target="DGW5uIM85UDAti1Zn-7H-138">
          <mxGeometry relative="1" as="geometry">
            <Array as="points">
              <mxPoint x="200" y="919" />
              <mxPoint x="1035" y="919" />
            </Array>
          </mxGeometry>
        </mxCell>
        <mxCell id="DGW5uIM85UDAti1Zn-7H-160" value="ShipManager" style="swimlane;fontStyle=1;align=center;verticalAlign=top;childLayout=stackLayout;horizontal=1;startSize=26;horizontalStack=0;resizeParent=1;resizeParentMax=0;resizeLast=0;collapsible=1;marginBottom=0;whiteSpace=wrap;html=1;" vertex="1" parent="WIyWlLk6GJQsqaUBKTNV-1">
          <mxGeometry x="1310" y="82" width="420" height="200" as="geometry" />
        </mxCell>
        <mxCell id="DGW5uIM85UDAti1Zn-7H-161" value="- ships : vector&amp;lt;shared_ptr&amp;lt;Ship&amp;gt;&amp;gt;" style="text;strokeColor=none;fillColor=none;align=left;verticalAlign=top;spacingLeft=4;spacingRight=4;overflow=hidden;rotatable=0;points=[[0,0.5],[1,0.5]];portConstraint=eastwest;whiteSpace=wrap;html=1;" vertex="1" parent="DGW5uIM85UDAti1Zn-7H-160">
          <mxGeometry y="26" width="420" height="26" as="geometry" />
        </mxCell>
        <mxCell id="DGW5uIM85UDAti1Zn-7H-162" value="" style="line;strokeWidth=1;fillColor=none;align=left;verticalAlign=middle;spacingTop=-1;spacingLeft=3;spacingRight=3;rotatable=0;labelPosition=right;points=[];portConstraint=eastwest;strokeColor=inherit;" vertex="1" parent="DGW5uIM85UDAti1Zn-7H-160">
          <mxGeometry y="52" width="420" height="8" as="geometry" />
        </mxCell>
        <mxCell id="DGW5uIM85UDAti1Zn-7H-164" value="+ ShipManager()" style="text;strokeColor=none;fillColor=none;align=left;verticalAlign=top;spacingLeft=4;spacingRight=4;overflow=hidden;rotatable=0;points=[[0,0.5],[1,0.5]];portConstraint=eastwest;whiteSpace=wrap;html=1;" vertex="1" parent="DGW5uIM85UDAti1Zn-7H-160">
          <mxGeometry y="60" width="420" height="26" as="geometry" />
        </mxCell>
        <mxCell id="DGW5uIM85UDAti1Zn-7H-165" value="+&amp;nbsp;addShip(std::shared_ptr&amp;lt;Ship&amp;gt; ship) : void" style="text;strokeColor=none;fillColor=none;align=left;verticalAlign=top;spacingLeft=4;spacingRight=4;overflow=hidden;rotatable=0;points=[[0,0.5],[1,0.5]];portConstraint=eastwest;whiteSpace=wrap;html=1;" vertex="1" parent="DGW5uIM85UDAti1Zn-7H-160">
          <mxGeometry y="86" width="420" height="26" as="geometry" />
        </mxCell>
        <mxCell id="DGW5uIM85UDAti1Zn-7H-166" value="+&amp;nbsp;&lt;span style=&quot;background-color: initial;&quot;&gt;createShips(const std::vector&amp;lt;uint8_t&amp;gt; &amp;amp;sizes&lt;/span&gt;&lt;span style=&quot;background-color: initial;&quot;&gt;)&lt;/span&gt;&amp;nbsp;: void" style="text;strokeColor=none;fillColor=none;align=left;verticalAlign=top;spacingLeft=4;spacingRight=4;overflow=hidden;rotatable=0;points=[[0,0.5],[1,0.5]];portConstraint=eastwest;whiteSpace=wrap;html=1;" vertex="1" parent="DGW5uIM85UDAti1Zn-7H-160">
          <mxGeometry y="112" width="420" height="28" as="geometry" />
        </mxCell>
        <mxCell id="DGW5uIM85UDAti1Zn-7H-167" value="+ getShipByCoords(Coordinate coord)&amp;nbsp;: shared_ptr&amp;lt;Ship&amp;gt;" style="text;strokeColor=none;fillColor=none;align=left;verticalAlign=top;spacingLeft=4;spacingRight=4;overflow=hidden;rotatable=0;points=[[0,0.5],[1,0.5]];portConstraint=eastwest;whiteSpace=wrap;html=1;" vertex="1" parent="DGW5uIM85UDAti1Zn-7H-160">
          <mxGeometry y="140" width="420" height="30" as="geometry" />
        </mxCell>
        <mxCell id="DGW5uIM85UDAti1Zn-7H-163" value="+&amp;nbsp;getAllShips() : vector&amp;lt;shared_ptr&amp;lt;Ship&amp;gt;&amp;gt; &amp;amp;" style="text;strokeColor=none;fillColor=none;align=left;verticalAlign=top;spacingLeft=4;spacingRight=4;overflow=hidden;rotatable=0;points=[[0,0.5],[1,0.5]];portConstraint=eastwest;whiteSpace=wrap;html=1;" vertex="1" parent="DGW5uIM85UDAti1Zn-7H-160">
          <mxGeometry y="170" width="420" height="30" as="geometry" />
        </mxCell>
        <mxCell id="DGW5uIM85UDAti1Zn-7H-168" style="edgeStyle=orthogonalEdgeStyle;rounded=0;orthogonalLoop=1;jettySize=auto;html=1;endArrow=diamondThin;endFill=0;" edge="1" parent="WIyWlLk6GJQsqaUBKTNV-1">
          <mxGeometry relative="1" as="geometry">
            <mxPoint x="1730" y="120" as="sourcePoint" />
            <mxPoint x="1540" y="759" as="targetPoint" />
            <Array as="points">
              <mxPoint x="1750" y="120" />
              <mxPoint x="1750" y="439" />
              <mxPoint x="1470" y="439" />
              <mxPoint x="1470" y="709" />
              <mxPoint x="1540" y="709" />
            </Array>
          </mxGeometry>
        </mxCell>
        <mxCell id="DGW5uIM85UDAti1Zn-7H-169" value="Game" style="swimlane;fontStyle=1;align=center;verticalAlign=top;childLayout=stackLayout;horizontal=1;startSize=26;horizontalStack=0;resizeParent=1;resizeParentMax=0;resizeLast=0;collapsible=1;marginBottom=0;whiteSpace=wrap;html=1;" vertex="1" parent="WIyWlLk6GJQsqaUBKTNV-1">
          <mxGeometry x="2060" y="114" width="410" height="440" as="geometry" />
        </mxCell>
        <mxCell id="DGW5uIM85UDAti1Zn-7H-173" value="- userField: Field" style="text;strokeColor=none;fillColor=none;align=left;verticalAlign=top;spacingLeft=4;spacingRight=4;overflow=hidden;rotatable=0;points=[[0,0.5],[1,0.5]];portConstraint=eastwest;whiteSpace=wrap;html=1;" vertex="1" parent="DGW5uIM85UDAti1Zn-7H-169">
          <mxGeometry y="26" width="410" height="26" as="geometry" />
        </mxCell>
        <mxCell id="DGW5uIM85UDAti1Zn-7H-174" value="- enemyField: Field" style="text;strokeColor=none;fillColor=none;align=left;verticalAlign=top;spacingLeft=4;spacingRight=4;overflow=hidden;rotatable=0;points=[[0,0.5],[1,0.5]];portConstraint=eastwest;whiteSpace=wrap;html=1;" vertex="1" parent="DGW5uIM85UDAti1Zn-7H-169">
          <mxGeometry y="52" width="410" height="26" as="geometry" />
        </mxCell>
        <mxCell id="DGW5uIM85UDAti1Zn-7H-175" value="- userShipManager: ShipManager" style="text;strokeColor=none;fillColor=none;align=left;verticalAlign=top;spacingLeft=4;spacingRight=4;overflow=hidden;rotatable=0;points=[[0,0.5],[1,0.5]];portConstraint=eastwest;whiteSpace=wrap;html=1;" vertex="1" parent="DGW5uIM85UDAti1Zn-7H-169">
          <mxGeometry y="78" width="410" height="26" as="geometry" />
        </mxCell>
        <mxCell id="DGW5uIM85UDAti1Zn-7H-176" value="- enemyShipManager: ShipManager" style="text;strokeColor=none;fillColor=none;align=left;verticalAlign=top;spacingLeft=4;spacingRight=4;overflow=hidden;rotatable=0;points=[[0,0.5],[1,0.5]];portConstraint=eastwest;whiteSpace=wrap;html=1;" vertex="1" parent="DGW5uIM85UDAti1Zn-7H-169">
          <mxGeometry y="104" width="410" height="26" as="geometry" />
        </mxCell>
        <mxCell id="DGW5uIM85UDAti1Zn-7H-170" value="- ui: UI" style="text;strokeColor=none;fillColor=none;align=left;verticalAlign=top;spacingLeft=4;spacingRight=4;overflow=hidden;rotatable=0;points=[[0,0.5],[1,0.5]];portConstraint=eastwest;whiteSpace=wrap;html=1;" vertex="1" parent="DGW5uIM85UDAti1Zn-7H-169">
          <mxGeometry y="130" width="410" height="26" as="geometry" />
        </mxCell>
        <mxCell id="DGW5uIM85UDAti1Zn-7H-171" value="" style="line;strokeWidth=1;fillColor=none;align=left;verticalAlign=middle;spacingTop=-1;spacingLeft=3;spacingRight=3;rotatable=0;labelPosition=right;points=[];portConstraint=eastwest;strokeColor=inherit;" vertex="1" parent="DGW5uIM85UDAti1Zn-7H-169">
          <mxGeometry y="156" width="410" height="8" as="geometry" />
        </mxCell>
        <mxCell id="DGW5uIM85UDAti1Zn-7H-177" value="+ Game(uint8_t rows, uint8_t columns)&lt;div&gt;&lt;br&gt;&lt;/div&gt;" style="text;strokeColor=none;fillColor=none;align=left;verticalAlign=top;spacingLeft=4;spacingRight=4;overflow=hidden;rotatable=0;points=[[0,0.5],[1,0.5]];portConstraint=eastwest;whiteSpace=wrap;html=1;" vertex="1" parent="DGW5uIM85UDAti1Zn-7H-169">
          <mxGeometry y="164" width="410" height="26" as="geometry" />
        </mxCell>
        <mxCell id="DGW5uIM85UDAti1Zn-7H-178" value="&lt;div&gt;+&amp;nbsp;&lt;span style=&quot;background-color: initial;&quot;&gt;setupUserFleet(const std::vector&amp;lt;uint8_t&amp;gt; &amp;amp;sizes = {4, 3, 3, 2, 2, 2, 1,&lt;/span&gt;&lt;/div&gt;&lt;div&gt;&amp;nbsp; &amp;nbsp; &amp;nbsp; &amp;nbsp; &amp;nbsp; &amp;nbsp; &amp;nbsp; &amp;nbsp; &amp;nbsp; &amp;nbsp; &amp;nbsp; &amp;nbsp; &amp;nbsp; &amp;nbsp; &amp;nbsp; &amp;nbsp; &amp;nbsp; &amp;nbsp; &amp;nbsp; &amp;nbsp; &amp;nbsp; &amp;nbsp; &amp;nbsp; &amp;nbsp; &amp;nbsp; &amp;nbsp; &amp;nbsp; &amp;nbsp; &amp;nbsp; &amp;nbsp;1, 1, 1}) : void&lt;/div&gt;" style="text;strokeColor=none;fillColor=none;align=left;verticalAlign=top;spacingLeft=4;spacingRight=4;overflow=hidden;rotatable=0;points=[[0,0.5],[1,0.5]];portConstraint=eastwest;whiteSpace=wrap;html=1;" vertex="1" parent="DGW5uIM85UDAti1Zn-7H-169">
          <mxGeometry y="190" width="410" height="50" as="geometry" />
        </mxCell>
        <mxCell id="DGW5uIM85UDAti1Zn-7H-179" value="&lt;div&gt;+&amp;nbsp;&lt;span style=&quot;background-color: initial;&quot;&gt;setupEnemyFleet(const std::vector&amp;lt;uint8_t&amp;gt; &amp;amp;sizes = {4, 3, 3, 2, 2, 2, 1,&lt;/span&gt;&lt;/div&gt;&lt;div&gt;&amp;nbsp; &amp;nbsp; &amp;nbsp; &amp;nbsp; &amp;nbsp; &amp;nbsp; &amp;nbsp; &amp;nbsp; &amp;nbsp; &amp;nbsp; &amp;nbsp; &amp;nbsp; &amp;nbsp; &amp;nbsp; &amp;nbsp; &amp;nbsp; &amp;nbsp; &amp;nbsp; &amp;nbsp; &amp;nbsp; &amp;nbsp; &amp;nbsp; &amp;nbsp; &amp;nbsp; &amp;nbsp; &amp;nbsp; &amp;nbsp; &amp;nbsp; &amp;nbsp; &amp;nbsp;1, 1, 1}) : void&lt;/div&gt;" style="text;strokeColor=none;fillColor=none;align=left;verticalAlign=top;spacingLeft=4;spacingRight=4;overflow=hidden;rotatable=0;points=[[0,0.5],[1,0.5]];portConstraint=eastwest;whiteSpace=wrap;html=1;" vertex="1" parent="DGW5uIM85UDAti1Zn-7H-169">
          <mxGeometry y="240" width="410" height="50" as="geometry" />
        </mxCell>
        <mxCell id="DGW5uIM85UDAti1Zn-7H-180" value="&lt;div&gt;+&amp;nbsp;renderFields() : void&lt;/div&gt;" style="text;strokeColor=none;fillColor=none;align=left;verticalAlign=top;spacingLeft=4;spacingRight=4;overflow=hidden;rotatable=0;points=[[0,0.5],[1,0.5]];portConstraint=eastwest;whiteSpace=wrap;html=1;" vertex="1" parent="DGW5uIM85UDAti1Zn-7H-169">
          <mxGeometry y="290" width="410" height="30" as="geometry" />
        </mxCell>
        <mxCell id="DGW5uIM85UDAti1Zn-7H-182" value="&lt;div&gt;+&amp;nbsp;getUserField()&amp;nbsp; : const Field &amp;amp;&lt;/div&gt;" style="text;strokeColor=none;fillColor=none;align=left;verticalAlign=top;spacingLeft=4;spacingRight=4;overflow=hidden;rotatable=0;points=[[0,0.5],[1,0.5]];portConstraint=eastwest;whiteSpace=wrap;html=1;" vertex="1" parent="DGW5uIM85UDAti1Zn-7H-169">
          <mxGeometry y="320" width="410" height="30" as="geometry" />
        </mxCell>
        <mxCell id="DGW5uIM85UDAti1Zn-7H-183" value="&lt;div&gt;+&amp;nbsp;getEnemyField()&amp;nbsp; : const Field &amp;amp;&lt;/div&gt;" style="text;strokeColor=none;fillColor=none;align=left;verticalAlign=top;spacingLeft=4;spacingRight=4;overflow=hidden;rotatable=0;points=[[0,0.5],[1,0.5]];portConstraint=eastwest;whiteSpace=wrap;html=1;" vertex="1" parent="DGW5uIM85UDAti1Zn-7H-169">
          <mxGeometry y="350" width="410" height="30" as="geometry" />
        </mxCell>
        <mxCell id="DGW5uIM85UDAti1Zn-7H-184" value="&lt;div&gt;+&amp;nbsp;attackEnemyField(Coordinate coord)&amp;nbsp; : void&lt;/div&gt;" style="text;strokeColor=none;fillColor=none;align=left;verticalAlign=top;spacingLeft=4;spacingRight=4;overflow=hidden;rotatable=0;points=[[0,0.5],[1,0.5]];portConstraint=eastwest;whiteSpace=wrap;html=1;" vertex="1" parent="DGW5uIM85UDAti1Zn-7H-169">
          <mxGeometry y="380" width="410" height="30" as="geometry" />
        </mxCell>
        <mxCell id="DGW5uIM85UDAti1Zn-7H-172" value="&lt;div&gt;+&amp;nbsp;attackUserField(Coordinate coord)&amp;nbsp; : void&lt;/div&gt;" style="text;strokeColor=none;fillColor=none;align=left;verticalAlign=top;spacingLeft=4;spacingRight=4;overflow=hidden;rotatable=0;points=[[0,0.5],[1,0.5]];portConstraint=eastwest;whiteSpace=wrap;html=1;" vertex="1" parent="DGW5uIM85UDAti1Zn-7H-169">
          <mxGeometry y="410" width="410" height="30" as="geometry" />
        </mxCell>
        <mxCell id="DGW5uIM85UDAti1Zn-7H-200" style="edgeStyle=orthogonalEdgeStyle;rounded=0;orthogonalLoop=1;jettySize=auto;html=1;entryX=0.995;entryY=0.11;entryDx=0;entryDy=0;entryPerimeter=0;endArrow=diamondThin;endFill=1;" edge="1" parent="WIyWlLk6GJQsqaUBKTNV-1" source="DGW5uIM85UDAti1Zn-7H-175" target="DGW5uIM85UDAti1Zn-7H-160">
          <mxGeometry relative="1" as="geometry" />
        </mxCell>
        <mxCell id="DGW5uIM85UDAti1Zn-7H-202" value="UI" style="swimlane;fontStyle=1;align=center;verticalAlign=top;childLayout=stackLayout;horizontal=1;startSize=26;horizontalStack=0;resizeParent=1;resizeParentMax=0;resizeLast=0;collapsible=1;marginBottom=0;whiteSpace=wrap;html=1;" vertex="1" parent="WIyWlLk6GJQsqaUBKTNV-1">
          <mxGeometry x="1520" y="477" width="510" height="216" as="geometry" />
        </mxCell>
        <mxCell id="DGW5uIM85UDAti1Zn-7H-203" value="- colors : Colors" style="text;strokeColor=none;fillColor=none;align=left;verticalAlign=top;spacingLeft=4;spacingRight=4;overflow=hidden;rotatable=0;points=[[0,0.5],[1,0.5]];portConstraint=eastwest;whiteSpace=wrap;html=1;" vertex="1" parent="DGW5uIM85UDAti1Zn-7H-202">
          <mxGeometry y="26" width="510" height="26" as="geometry" />
        </mxCell>
        <mxCell id="DGW5uIM85UDAti1Zn-7H-204" value="" style="line;strokeWidth=1;fillColor=none;align=left;verticalAlign=middle;spacingTop=-1;spacingLeft=3;spacingRight=3;rotatable=0;labelPosition=right;points=[];portConstraint=eastwest;strokeColor=inherit;" vertex="1" parent="DGW5uIM85UDAti1Zn-7H-202">
          <mxGeometry y="52" width="510" height="8" as="geometry" />
        </mxCell>
        <mxCell id="DGW5uIM85UDAti1Zn-7H-218" value="+ UI()" style="text;strokeColor=none;fillColor=none;align=left;verticalAlign=top;spacingLeft=4;spacingRight=4;overflow=hidden;rotatable=0;points=[[0,0.5],[1,0.5]];portConstraint=eastwest;whiteSpace=wrap;html=1;" vertex="1" parent="DGW5uIM85UDAti1Zn-7H-202">
          <mxGeometry y="60" width="510" height="26" as="geometry" />
        </mxCell>
        <mxCell id="DGW5uIM85UDAti1Zn-7H-219" value="+&amp;nbsp;&lt;span style=&quot;background-color: initial;&quot;&gt;renderField(const Field &amp;amp;field, bool isEnemyField,&amp;nbsp;&lt;/span&gt;&lt;span style=&quot;background-color: initial;&quot;&gt;bool colorful) : void&lt;/span&gt;" style="text;strokeColor=none;fillColor=none;align=left;verticalAlign=top;spacingLeft=4;spacingRight=4;overflow=hidden;rotatable=0;points=[[0,0.5],[1,0.5]];portConstraint=eastwest;whiteSpace=wrap;html=1;" vertex="1" parent="DGW5uIM85UDAti1Zn-7H-202">
          <mxGeometry y="86" width="510" height="26" as="geometry" />
        </mxCell>
        <mxCell id="DGW5uIM85UDAti1Zn-7H-220" value="+&amp;nbsp;&lt;span style=&quot;background-color: initial;&quot;&gt;fieldsRender(const Field &amp;amp;userField, const Field &amp;amp;enemyField,&lt;/span&gt;&lt;span style=&quot;background-color: initial;&quot;&gt;&amp;nbsp;bool colorful = true)&amp;nbsp; : void&lt;/span&gt;" style="text;strokeColor=none;fillColor=none;align=left;verticalAlign=top;spacingLeft=4;spacingRight=4;overflow=hidden;rotatable=0;points=[[0,0.5],[1,0.5]];portConstraint=eastwest;whiteSpace=wrap;html=1;" vertex="1" parent="DGW5uIM85UDAti1Zn-7H-202">
          <mxGeometry y="112" width="510" height="26" as="geometry" />
        </mxCell>
        <mxCell id="DGW5uIM85UDAti1Zn-7H-221" value="+&amp;nbsp;renderShipState(const std::shared_ptr&amp;lt;Ship&amp;gt; &amp;amp;ship) : void" style="text;strokeColor=none;fillColor=none;align=left;verticalAlign=top;spacingLeft=4;spacingRight=4;overflow=hidden;rotatable=0;points=[[0,0.5],[1,0.5]];portConstraint=eastwest;whiteSpace=wrap;html=1;" vertex="1" parent="DGW5uIM85UDAti1Zn-7H-202">
          <mxGeometry y="138" width="510" height="26" as="geometry" />
        </mxCell>
        <mxCell id="DGW5uIM85UDAti1Zn-7H-222" value="+&amp;nbsp;renderSegmentState(const ShipSegment &amp;amp;segment, int index) : void" style="text;strokeColor=none;fillColor=none;align=left;verticalAlign=top;spacingLeft=4;spacingRight=4;overflow=hidden;rotatable=0;points=[[0,0.5],[1,0.5]];portConstraint=eastwest;whiteSpace=wrap;html=1;" vertex="1" parent="DGW5uIM85UDAti1Zn-7H-202">
          <mxGeometry y="164" width="510" height="26" as="geometry" />
        </mxCell>
        <mxCell id="DGW5uIM85UDAti1Zn-7H-205" value="+&amp;nbsp;displayAttackResult(AttackResult result, Coordinate coord) : void" style="text;strokeColor=none;fillColor=none;align=left;verticalAlign=top;spacingLeft=4;spacingRight=4;overflow=hidden;rotatable=0;points=[[0,0.5],[1,0.5]];portConstraint=eastwest;whiteSpace=wrap;html=1;" vertex="1" parent="DGW5uIM85UDAti1Zn-7H-202">
          <mxGeometry y="190" width="510" height="26" as="geometry" />
        </mxCell>
        <mxCell id="DGW5uIM85UDAti1Zn-7H-207" style="edgeStyle=orthogonalEdgeStyle;rounded=0;orthogonalLoop=1;jettySize=auto;html=1;entryX=0.5;entryY=0;entryDx=0;entryDy=0;endArrow=diamondThin;endFill=1;" edge="1" parent="WIyWlLk6GJQsqaUBKTNV-1" source="DGW5uIM85UDAti1Zn-7H-170" target="DGW5uIM85UDAti1Zn-7H-202">
          <mxGeometry relative="1" as="geometry" />
        </mxCell>
        <mxCell id="DGW5uIM85UDAti1Zn-7H-208" value="Colors" style="swimlane;fontStyle=0;childLayout=stackLayout;horizontal=1;startSize=26;fillColor=none;horizontalStack=0;resizeParent=1;resizeParentMax=0;resizeLast=0;collapsible=1;marginBottom=0;whiteSpace=wrap;html=1;" vertex="1" parent="WIyWlLk6GJQsqaUBKTNV-1">
          <mxGeometry x="2070" y="750" width="170" height="180" as="geometry" />
        </mxCell>
        <mxCell id="DGW5uIM85UDAti1Zn-7H-213" value="+&amp;nbsp;headerColor : string" style="text;strokeColor=none;fillColor=none;align=left;verticalAlign=top;spacingLeft=4;spacingRight=4;overflow=hidden;rotatable=0;points=[[0,0.5],[1,0.5]];portConstraint=eastwest;whiteSpace=wrap;html=1;" vertex="1" parent="DGW5uIM85UDAti1Zn-7H-208">
          <mxGeometry y="26" width="170" height="24" as="geometry" />
        </mxCell>
        <mxCell id="DGW5uIM85UDAti1Zn-7H-214" value="+&amp;nbsp;cellWaterColor : string" style="text;strokeColor=none;fillColor=none;align=left;verticalAlign=top;spacingLeft=4;spacingRight=4;overflow=hidden;rotatable=0;points=[[0,0.5],[1,0.5]];portConstraint=eastwest;whiteSpace=wrap;html=1;" vertex="1" parent="DGW5uIM85UDAti1Zn-7H-208">
          <mxGeometry y="50" width="170" height="26" as="geometry" />
        </mxCell>
        <mxCell id="DGW5uIM85UDAti1Zn-7H-215" value="+&amp;nbsp;cellShipColor : string" style="text;strokeColor=none;fillColor=none;align=left;verticalAlign=top;spacingLeft=4;spacingRight=4;overflow=hidden;rotatable=0;points=[[0,0.5],[1,0.5]];portConstraint=eastwest;whiteSpace=wrap;html=1;" vertex="1" parent="DGW5uIM85UDAti1Zn-7H-208">
          <mxGeometry y="76" width="170" height="26" as="geometry" />
        </mxCell>
        <mxCell id="DGW5uIM85UDAti1Zn-7H-216" value="+&amp;nbsp;cellHitColor : string" style="text;strokeColor=none;fillColor=none;align=left;verticalAlign=top;spacingLeft=4;spacingRight=4;overflow=hidden;rotatable=0;points=[[0,0.5],[1,0.5]];portConstraint=eastwest;whiteSpace=wrap;html=1;" vertex="1" parent="DGW5uIM85UDAti1Zn-7H-208">
          <mxGeometry y="102" width="170" height="26" as="geometry" />
        </mxCell>
        <mxCell id="DGW5uIM85UDAti1Zn-7H-217" value="+&amp;nbsp;cellDestroyedColor : string" style="text;strokeColor=none;fillColor=none;align=left;verticalAlign=top;spacingLeft=4;spacingRight=4;overflow=hidden;rotatable=0;points=[[0,0.5],[1,0.5]];portConstraint=eastwest;whiteSpace=wrap;html=1;" vertex="1" parent="DGW5uIM85UDAti1Zn-7H-208">
          <mxGeometry y="128" width="170" height="26" as="geometry" />
        </mxCell>
        <mxCell id="DGW5uIM85UDAti1Zn-7H-209" value="+&amp;nbsp;resetColor: string" style="text;strokeColor=none;fillColor=none;align=left;verticalAlign=top;spacingLeft=4;spacingRight=4;overflow=hidden;rotatable=0;points=[[0,0.5],[1,0.5]];portConstraint=eastwest;whiteSpace=wrap;html=1;" vertex="1" parent="DGW5uIM85UDAti1Zn-7H-208">
          <mxGeometry y="154" width="170" height="26" as="geometry" />
        </mxCell>
        <mxCell id="DGW5uIM85UDAti1Zn-7H-212" style="edgeStyle=orthogonalEdgeStyle;rounded=0;orthogonalLoop=1;jettySize=auto;html=1;entryX=0;entryY=0.25;entryDx=0;entryDy=0;startArrow=circlePlus;startFill=0;endArrow=diamondThin;endFill=0;" edge="1" parent="WIyWlLk6GJQsqaUBKTNV-1" source="DGW5uIM85UDAti1Zn-7H-203" target="DGW5uIM85UDAti1Zn-7H-208">
          <mxGeometry relative="1" as="geometry" />
        </mxCell>
        <mxCell id="DGW5uIM85UDAti1Zn-7H-224" style="edgeStyle=orthogonalEdgeStyle;rounded=0;orthogonalLoop=1;jettySize=auto;html=1;endArrow=diamondThin;endFill=1;" edge="1" parent="WIyWlLk6GJQsqaUBKTNV-1" source="DGW5uIM85UDAti1Zn-7H-173" target="DGW5uIM85UDAti1Zn-7H-2">
          <mxGeometry relative="1" as="geometry">
            <Array as="points">
              <mxPoint x="2265" y="50" />
              <mxPoint x="760" y="50" />
            </Array>
          </mxGeometry>
        </mxCell>
        <mxCell id="DGW5uIM85UDAti1Zn-7H-226" style="edgeStyle=orthogonalEdgeStyle;rounded=0;orthogonalLoop=1;jettySize=auto;html=1;entryX=0.25;entryY=0;entryDx=0;entryDy=0;endArrow=diamondThin;endFill=0;" edge="1" parent="WIyWlLk6GJQsqaUBKTNV-1" source="DGW5uIM85UDAti1Zn-7H-149" target="DGW5uIM85UDAti1Zn-7H-124">
          <mxGeometry relative="1" as="geometry" />
        </mxCell>
        <mxCell id="DGW5uIM85UDAti1Zn-7H-236" value="Use" style="endArrow=open;endSize=12;dashed=1;html=1;rounded=0;exitX=0;exitY=0.5;exitDx=0;exitDy=0;entryX=1;entryY=0.25;entryDx=0;entryDy=0;edgeStyle=orthogonalEdgeStyle;startArrow=circlePlus;startFill=0;" edge="1" parent="WIyWlLk6GJQsqaUBKTNV-1" source="DGW5uIM85UDAti1Zn-7H-58" target="DGW5uIM85UDAti1Zn-7H-46">
          <mxGeometry width="160" relative="1" as="geometry">
            <mxPoint x="380" y="450" as="sourcePoint" />
            <mxPoint x="540" y="450" as="targetPoint" />
            <Array as="points">
              <mxPoint x="400" y="325" />
              <mxPoint x="400" y="163" />
            </Array>
          </mxGeometry>
        </mxCell>
        <mxCell id="DGW5uIM85UDAti1Zn-7H-237" value="Use" style="endArrow=open;endSize=12;dashed=1;html=1;rounded=0;exitX=0;exitY=0.5;exitDx=0;exitDy=0;entryX=1.011;entryY=0.217;entryDx=0;entryDy=0;edgeStyle=orthogonalEdgeStyle;startArrow=circlePlus;startFill=0;entryPerimeter=0;" edge="1" parent="WIyWlLk6GJQsqaUBKTNV-1" source="DGW5uIM85UDAti1Zn-7H-59" target="DGW5uIM85UDAti1Zn-7H-71">
          <mxGeometry width="160" relative="1" as="geometry">
            <mxPoint x="430" y="372" as="sourcePoint" />
            <mxPoint x="180" y="210" as="targetPoint" />
            <Array as="points">
              <mxPoint x="370" y="351" />
              <mxPoint x="370" y="327" />
            </Array>
          </mxGeometry>
        </mxCell>
        <mxCell id="DGW5uIM85UDAti1Zn-7H-238" value="Use" style="endArrow=open;endSize=12;dashed=1;html=1;rounded=0;exitX=0;exitY=0.5;exitDx=0;exitDy=0;entryX=0.997;entryY=0.133;entryDx=0;entryDy=0;entryPerimeter=0;edgeStyle=orthogonalEdgeStyle;" edge="1" parent="WIyWlLk6GJQsqaUBKTNV-1" source="DGW5uIM85UDAti1Zn-7H-99" target="DGW5uIM85UDAti1Zn-7H-109">
          <mxGeometry width="160" relative="1" as="geometry">
            <mxPoint x="380" y="640" as="sourcePoint" />
            <mxPoint x="540" y="640" as="targetPoint" />
          </mxGeometry>
        </mxCell>
      </root>
    </mxGraphModel>
  </diagram>
</mxfile>
